<mxfile host="Electron" modified="2024-10-01T08:45:02.554Z" agent="Mozilla/5.0 (Windows NT 10.0; Win64; x64) AppleWebKit/537.36 (KHTML, like Gecko) draw.io/21.7.5 Chrome/114.0.5735.289 Electron/25.8.1 Safari/537.36" etag="21XuE9DHvc8XdDbF0PtW" version="21.7.5" type="device">
  <diagram name="PÃ¡gina-1" id="YvQCQa60wj8LioVzmu3z">
    <mxGraphModel dx="1674" dy="2005" grid="1" gridSize="10" guides="1" tooltips="1" connect="1" arrows="1" fold="1" page="1" pageScale="1" pageWidth="827" pageHeight="1169" math="0" shadow="0">
      <root>
        <mxCell id="0" />
        <mxCell id="1" parent="0" />
        <mxCell id="5W1dFB9ZlSUIS5wNSSRG-18" style="edgeStyle=orthogonalEdgeStyle;rounded=0;orthogonalLoop=1;jettySize=auto;html=1;entryX=0.5;entryY=0;entryDx=0;entryDy=0;" parent="1" source="5W1dFB9ZlSUIS5wNSSRG-1" target="5W1dFB9ZlSUIS5wNSSRG-2" edge="1">
          <mxGeometry relative="1" as="geometry" />
        </mxCell>
        <mxCell id="5W1dFB9ZlSUIS5wNSSRG-1" value="Inicio Act22T2" style="rounded=1;whiteSpace=wrap;html=1;" parent="1" vertex="1">
          <mxGeometry x="60" y="-1140" width="120" height="30" as="geometry" />
        </mxCell>
        <mxCell id="5W1dFB9ZlSUIS5wNSSRG-19" style="edgeStyle=orthogonalEdgeStyle;rounded=0;orthogonalLoop=1;jettySize=auto;html=1;entryX=0.5;entryY=0;entryDx=0;entryDy=0;" parent="1" source="5W1dFB9ZlSUIS5wNSSRG-2" target="5W1dFB9ZlSUIS5wNSSRG-3" edge="1">
          <mxGeometry relative="1" as="geometry" />
        </mxCell>
        <mxCell id="5W1dFB9ZlSUIS5wNSSRG-2" value="i = 0" style="rounded=0;whiteSpace=wrap;html=1;" parent="1" vertex="1">
          <mxGeometry x="60" y="-1090" width="120" height="30" as="geometry" />
        </mxCell>
        <mxCell id="5W1dFB9ZlSUIS5wNSSRG-20" style="edgeStyle=orthogonalEdgeStyle;rounded=0;orthogonalLoop=1;jettySize=auto;html=1;entryX=0.5;entryY=0;entryDx=0;entryDy=0;" parent="1" source="5W1dFB9ZlSUIS5wNSSRG-3" target="5W1dFB9ZlSUIS5wNSSRG-4" edge="1">
          <mxGeometry relative="1" as="geometry" />
        </mxCell>
        <mxCell id="5W1dFB9ZlSUIS5wNSSRG-3" value="vendido = 0" style="rounded=0;whiteSpace=wrap;html=1;" parent="1" vertex="1">
          <mxGeometry x="60" y="-1040" width="120" height="30" as="geometry" />
        </mxCell>
        <mxCell id="5W1dFB9ZlSUIS5wNSSRG-21" style="edgeStyle=orthogonalEdgeStyle;rounded=0;orthogonalLoop=1;jettySize=auto;html=1;entryX=0.5;entryY=0;entryDx=0;entryDy=0;" parent="1" source="5W1dFB9ZlSUIS5wNSSRG-4" target="5W1dFB9ZlSUIS5wNSSRG-5" edge="1">
          <mxGeometry relative="1" as="geometry" />
        </mxCell>
        <mxCell id="5W1dFB9ZlSUIS5wNSSRG-4" value="vendidoTotal = 0" style="rounded=0;whiteSpace=wrap;html=1;" parent="1" vertex="1">
          <mxGeometry x="60" y="-990" width="120" height="30" as="geometry" />
        </mxCell>
        <mxCell id="5W1dFB9ZlSUIS5wNSSRG-22" style="edgeStyle=orthogonalEdgeStyle;rounded=0;orthogonalLoop=1;jettySize=auto;html=1;entryX=0.5;entryY=0;entryDx=0;entryDy=0;" parent="1" source="5W1dFB9ZlSUIS5wNSSRG-5" target="5W1dFB9ZlSUIS5wNSSRG-6" edge="1">
          <mxGeometry relative="1" as="geometry" />
        </mxCell>
        <mxCell id="5W1dFB9ZlSUIS5wNSSRG-5" value="FactTotal = 0" style="rounded=0;whiteSpace=wrap;html=1;" parent="1" vertex="1">
          <mxGeometry x="60" y="-940" width="120" height="30" as="geometry" />
        </mxCell>
        <mxCell id="5W1dFB9ZlSUIS5wNSSRG-24" style="edgeStyle=orthogonalEdgeStyle;rounded=0;orthogonalLoop=1;jettySize=auto;html=1;entryX=0.5;entryY=0;entryDx=0;entryDy=0;" parent="1" source="5W1dFB9ZlSUIS5wNSSRG-6" target="5W1dFB9ZlSUIS5wNSSRG-7" edge="1">
          <mxGeometry relative="1" as="geometry" />
        </mxCell>
        <mxCell id="5W1dFB9ZlSUIS5wNSSRG-6" value="precio = 0" style="rounded=0;whiteSpace=wrap;html=1;" parent="1" vertex="1">
          <mxGeometry x="60" y="-890" width="120" height="30" as="geometry" />
        </mxCell>
        <mxCell id="5W1dFB9ZlSUIS5wNSSRG-25" style="edgeStyle=orthogonalEdgeStyle;rounded=0;orthogonalLoop=1;jettySize=auto;html=1;entryX=0.498;entryY=-0.034;entryDx=0;entryDy=0;entryPerimeter=0;" parent="1" source="5W1dFB9ZlSUIS5wNSSRG-7" target="5W1dFB9ZlSUIS5wNSSRG-8" edge="1">
          <mxGeometry relative="1" as="geometry" />
        </mxCell>
        <mxCell id="5W1dFB9ZlSUIS5wNSSRG-7" value="mas600 = 0" style="rounded=0;whiteSpace=wrap;html=1;" parent="1" vertex="1">
          <mxGeometry x="60" y="-840" width="120" height="30" as="geometry" />
        </mxCell>
        <mxCell id="5W1dFB9ZlSUIS5wNSSRG-27" style="edgeStyle=orthogonalEdgeStyle;rounded=0;orthogonalLoop=1;jettySize=auto;html=1;entryX=0.5;entryY=0;entryDx=0;entryDy=0;" parent="1" source="5W1dFB9ZlSUIS5wNSSRG-8" target="5W1dFB9ZlSUIS5wNSSRG-10" edge="1">
          <mxGeometry relative="1" as="geometry" />
        </mxCell>
        <mxCell id="5W1dFB9ZlSUIS5wNSSRG-48" style="edgeStyle=orthogonalEdgeStyle;rounded=0;orthogonalLoop=1;jettySize=auto;html=1;entryX=0;entryY=0.5;entryDx=0;entryDy=0;" parent="1" source="5W1dFB9ZlSUIS5wNSSRG-8" target="5W1dFB9ZlSUIS5wNSSRG-36" edge="1">
          <mxGeometry relative="1" as="geometry" />
        </mxCell>
        <mxCell id="5W1dFB9ZlSUIS5wNSSRG-8" value="i &amp;lt; 5" style="rhombus;whiteSpace=wrap;html=1;" parent="1" vertex="1">
          <mxGeometry x="60" y="-780" width="120" height="70" as="geometry" />
        </mxCell>
        <mxCell id="5W1dFB9ZlSUIS5wNSSRG-28" style="edgeStyle=orthogonalEdgeStyle;rounded=0;orthogonalLoop=1;jettySize=auto;html=1;entryX=0.5;entryY=0;entryDx=0;entryDy=0;" parent="1" source="5W1dFB9ZlSUIS5wNSSRG-10" target="5W1dFB9ZlSUIS5wNSSRG-11" edge="1">
          <mxGeometry relative="1" as="geometry" />
        </mxCell>
        <mxCell id="5W1dFB9ZlSUIS5wNSSRG-10" value="Leer codigo" style="rounded=0;whiteSpace=wrap;html=1;" parent="1" vertex="1">
          <mxGeometry x="60" y="-680" width="120" height="30" as="geometry" />
        </mxCell>
        <mxCell id="5W1dFB9ZlSUIS5wNSSRG-30" style="edgeStyle=orthogonalEdgeStyle;rounded=0;orthogonalLoop=1;jettySize=auto;html=1;" parent="1" source="5W1dFB9ZlSUIS5wNSSRG-11" target="5W1dFB9ZlSUIS5wNSSRG-12" edge="1">
          <mxGeometry relative="1" as="geometry" />
        </mxCell>
        <mxCell id="5W1dFB9ZlSUIS5wNSSRG-11" value="Leer vendido" style="rounded=0;whiteSpace=wrap;html=1;" parent="1" vertex="1">
          <mxGeometry x="60" y="-630" width="120" height="30" as="geometry" />
        </mxCell>
        <mxCell id="5W1dFB9ZlSUIS5wNSSRG-31" style="edgeStyle=orthogonalEdgeStyle;rounded=0;orthogonalLoop=1;jettySize=auto;html=1;entryX=0.5;entryY=0;entryDx=0;entryDy=0;" parent="1" source="5W1dFB9ZlSUIS5wNSSRG-12" target="5W1dFB9ZlSUIS5wNSSRG-13" edge="1">
          <mxGeometry relative="1" as="geometry" />
        </mxCell>
        <mxCell id="5W1dFB9ZlSUIS5wNSSRG-12" value="Leer precio" style="rounded=0;whiteSpace=wrap;html=1;" parent="1" vertex="1">
          <mxGeometry x="60" y="-584.5" width="120" height="30" as="geometry" />
        </mxCell>
        <mxCell id="5W1dFB9ZlSUIS5wNSSRG-32" style="edgeStyle=orthogonalEdgeStyle;rounded=0;orthogonalLoop=1;jettySize=auto;html=1;entryX=0.5;entryY=0;entryDx=0;entryDy=0;" parent="1" source="5W1dFB9ZlSUIS5wNSSRG-13" target="5W1dFB9ZlSUIS5wNSSRG-14" edge="1">
          <mxGeometry relative="1" as="geometry" />
        </mxCell>
        <mxCell id="5W1dFB9ZlSUIS5wNSSRG-13" value="vendidoTotal+=vendido" style="rounded=0;whiteSpace=wrap;html=1;" parent="1" vertex="1">
          <mxGeometry x="55" y="-530" width="130" height="30" as="geometry" />
        </mxCell>
        <mxCell id="5W1dFB9ZlSUIS5wNSSRG-33" style="edgeStyle=orthogonalEdgeStyle;rounded=0;orthogonalLoop=1;jettySize=auto;html=1;entryX=-0.008;entryY=0.497;entryDx=0;entryDy=0;entryPerimeter=0;" parent="1" source="5W1dFB9ZlSUIS5wNSSRG-14" target="5W1dFB9ZlSUIS5wNSSRG-15" edge="1">
          <mxGeometry relative="1" as="geometry" />
        </mxCell>
        <mxCell id="5W1dFB9ZlSUIS5wNSSRG-14" value="FactTotal+=vendido*precio" style="rounded=0;whiteSpace=wrap;html=1;" parent="1" vertex="1">
          <mxGeometry x="47.5" y="-480" width="145" height="30" as="geometry" />
        </mxCell>
        <mxCell id="5W1dFB9ZlSUIS5wNSSRG-34" style="edgeStyle=orthogonalEdgeStyle;rounded=0;orthogonalLoop=1;jettySize=auto;html=1;" parent="1" source="5W1dFB9ZlSUIS5wNSSRG-15" target="5W1dFB9ZlSUIS5wNSSRG-17" edge="1">
          <mxGeometry relative="1" as="geometry" />
        </mxCell>
        <mxCell id="5W1dFB9ZlSUIS5wNSSRG-15" value="vendido*precio &amp;gt; 600" style="rhombus;whiteSpace=wrap;html=1;" parent="1" vertex="1">
          <mxGeometry x="250" y="-506.25" width="140" height="82.5" as="geometry" />
        </mxCell>
        <mxCell id="5W1dFB9ZlSUIS5wNSSRG-46" style="edgeStyle=orthogonalEdgeStyle;rounded=0;orthogonalLoop=1;jettySize=auto;html=1;entryX=0.25;entryY=1;entryDx=0;entryDy=0;" parent="1" source="5W1dFB9ZlSUIS5wNSSRG-17" target="5W1dFB9ZlSUIS5wNSSRG-43" edge="1">
          <mxGeometry relative="1" as="geometry" />
        </mxCell>
        <mxCell id="5W1dFB9ZlSUIS5wNSSRG-17" value="mas600++" style="rounded=0;whiteSpace=wrap;html=1;" parent="1" vertex="1">
          <mxGeometry x="260" y="-554.5" width="120" height="30" as="geometry" />
        </mxCell>
        <mxCell id="5W1dFB9ZlSUIS5wNSSRG-49" style="edgeStyle=orthogonalEdgeStyle;rounded=0;orthogonalLoop=1;jettySize=auto;html=1;entryX=0.5;entryY=0;entryDx=0;entryDy=0;" parent="1" source="5W1dFB9ZlSUIS5wNSSRG-36" target="5W1dFB9ZlSUIS5wNSSRG-37" edge="1">
          <mxGeometry relative="1" as="geometry" />
        </mxCell>
        <mxCell id="5W1dFB9ZlSUIS5wNSSRG-36" value="Escribir FactTotal" style="shape=parallelogram;perimeter=parallelogramPerimeter;whiteSpace=wrap;html=1;fixedSize=1;" parent="1" vertex="1">
          <mxGeometry x="260" y="-760" width="130" height="30" as="geometry" />
        </mxCell>
        <mxCell id="5W1dFB9ZlSUIS5wNSSRG-50" style="edgeStyle=orthogonalEdgeStyle;rounded=0;orthogonalLoop=1;jettySize=auto;html=1;entryX=0.5;entryY=0;entryDx=0;entryDy=0;" parent="1" source="5W1dFB9ZlSUIS5wNSSRG-37" target="5W1dFB9ZlSUIS5wNSSRG-38" edge="1">
          <mxGeometry relative="1" as="geometry" />
        </mxCell>
        <mxCell id="5W1dFB9ZlSUIS5wNSSRG-37" value="Escribir vendidoTotal" style="shape=parallelogram;perimeter=parallelogramPerimeter;whiteSpace=wrap;html=1;fixedSize=1;" parent="1" vertex="1">
          <mxGeometry x="255" y="-710" width="140" height="30" as="geometry" />
        </mxCell>
        <mxCell id="5W1dFB9ZlSUIS5wNSSRG-51" style="edgeStyle=orthogonalEdgeStyle;rounded=0;orthogonalLoop=1;jettySize=auto;html=1;entryX=0.5;entryY=0;entryDx=0;entryDy=0;" parent="1" source="5W1dFB9ZlSUIS5wNSSRG-38" target="5W1dFB9ZlSUIS5wNSSRG-47" edge="1">
          <mxGeometry relative="1" as="geometry" />
        </mxCell>
        <mxCell id="5W1dFB9ZlSUIS5wNSSRG-38" value="Escribir mas600" style="shape=parallelogram;perimeter=parallelogramPerimeter;whiteSpace=wrap;html=1;fixedSize=1;" parent="1" vertex="1">
          <mxGeometry x="260" y="-660" width="130" height="30" as="geometry" />
        </mxCell>
        <mxCell id="5W1dFB9ZlSUIS5wNSSRG-44" value="" style="endArrow=classic;html=1;rounded=0;exitX=1;exitY=0.5;exitDx=0;exitDy=0;" parent="1" source="5W1dFB9ZlSUIS5wNSSRG-15" target="5W1dFB9ZlSUIS5wNSSRG-43" edge="1">
          <mxGeometry width="50" height="50" relative="1" as="geometry">
            <mxPoint x="390" y="-465" as="sourcePoint" />
            <mxPoint x="120" y="-800" as="targetPoint" />
            <Array as="points">
              <mxPoint x="520" y="-465" />
            </Array>
          </mxGeometry>
        </mxCell>
        <mxCell id="5W1dFB9ZlSUIS5wNSSRG-43" value="i++" style="rounded=0;whiteSpace=wrap;html=1;" parent="1" vertex="1">
          <mxGeometry x="460" y="-620" width="120" height="30" as="geometry" />
        </mxCell>
        <mxCell id="5W1dFB9ZlSUIS5wNSSRG-45" value="" style="endArrow=classic;html=1;rounded=0;exitX=0.5;exitY=0;exitDx=0;exitDy=0;" parent="1" source="5W1dFB9ZlSUIS5wNSSRG-43" edge="1">
          <mxGeometry width="50" height="50" relative="1" as="geometry">
            <mxPoint x="360" y="-670" as="sourcePoint" />
            <mxPoint x="120" y="-800" as="targetPoint" />
            <Array as="points">
              <mxPoint x="520" y="-800" />
            </Array>
          </mxGeometry>
        </mxCell>
        <mxCell id="5W1dFB9ZlSUIS5wNSSRG-47" value="Fin Act22T2" style="rounded=1;whiteSpace=wrap;html=1;" parent="1" vertex="1">
          <mxGeometry x="265" y="-614.5" width="120" height="30" as="geometry" />
        </mxCell>
        <mxCell id="5W1dFB9ZlSUIS5wNSSRG-52" value="NO" style="text;html=1;strokeColor=none;fillColor=none;align=center;verticalAlign=middle;whiteSpace=wrap;rounded=0;" parent="1" vertex="1">
          <mxGeometry x="170" y="-770" width="60" height="30" as="geometry" />
        </mxCell>
        <mxCell id="5W1dFB9ZlSUIS5wNSSRG-53" value="SI" style="text;html=1;strokeColor=none;fillColor=none;align=center;verticalAlign=middle;whiteSpace=wrap;rounded=0;" parent="1" vertex="1">
          <mxGeometry x="80" y="-720" width="60" height="30" as="geometry" />
        </mxCell>
        <mxCell id="5W1dFB9ZlSUIS5wNSSRG-54" value="NO" style="text;html=1;strokeColor=none;fillColor=none;align=center;verticalAlign=middle;whiteSpace=wrap;rounded=0;" parent="1" vertex="1">
          <mxGeometry x="370" y="-490" width="60" height="30" as="geometry" />
        </mxCell>
        <mxCell id="5W1dFB9ZlSUIS5wNSSRG-56" value="SI" style="text;html=1;strokeColor=none;fillColor=none;align=center;verticalAlign=middle;whiteSpace=wrap;rounded=0;" parent="1" vertex="1">
          <mxGeometry x="300" y="-524.5" width="60" height="30" as="geometry" />
        </mxCell>
      </root>
    </mxGraphModel>
  </diagram>
</mxfile>
